<?xml version="1.0" encoding="UTF-8" standalone="no"?><svg xmlns="http://www.w3.org/2000/svg" xmlns:xlink="http://www.w3.org/1999/xlink" contentStyleType="text/css" height="303px" preserveAspectRatio="none" style="width:354px;height:303px;background:#FFFFFF;" version="1.1" viewBox="0 0 354 303" width="354px" zoomAndPan="magnify"><defs/><g><ellipse cx="177" cy="20" fill="#222222" rx="10" ry="10" style="stroke:#222222;stroke-width:1.0;"/><rect fill="#F1F1F1" height="36.3887" rx="12.5" ry="12.5" style="stroke:#181818;stroke-width:0.5;" width="92" x="131" y="50"/><text fill="#000000" font-family="sans-serif" font-size="12" lengthAdjust="spacing" textLength="72" x="141" y="73.752">进入教师页面</text><polygon fill="#F1F1F1" points="155,106.3887,199,106.3887,211,118.3887,199,130.3887,155,130.3887,143,118.3887,155,106.3887" style="stroke:#181818;stroke-width:0.5;"/><text fill="#000000" font-family="sans-serif" font-size="11" lengthAdjust="spacing" textLength="44" x="155" y="123.4832">进行管理</text><rect fill="#F1F1F1" height="36.3887" rx="12.5" ry="12.5" style="stroke:#181818;stroke-width:0.5;" width="104" x="11" y="170.4346"/><text fill="#000000" font-family="sans-serif" font-size="12" lengthAdjust="spacing" textLength="84" x="21" y="194.1865">对考试进行管理</text><rect fill="#F1F1F1" height="36.3887" rx="12.5" ry="12.5" style="stroke:#181818;stroke-width:0.5;" width="104" x="125" y="170.4346"/><text fill="#000000" font-family="sans-serif" font-size="12" lengthAdjust="spacing" textLength="84" x="135" y="194.1865">对题库进行管理</text><rect fill="#F1F1F1" height="36.3887" rx="12.5" ry="12.5" style="stroke:#181818;stroke-width:0.5;" width="104" x="239" y="170.4346"/><text fill="#000000" font-family="sans-serif" font-size="12" lengthAdjust="spacing" textLength="84" x="249" y="194.1865">对试卷进行管理</text><polygon fill="#F1F1F1" points="177,226.8232,177,226.8232,189,238.8232,177,250.8232,177,250.8232,165,238.8232,177,226.8232" style="stroke:#181818;stroke-width:0.5;"/><ellipse cx="177" cy="281.8232" fill="none" rx="11" ry="11" style="stroke:#222222;stroke-width:1.0;"/><ellipse cx="177" cy="281.8232" fill="#222222" rx="6" ry="6" style="stroke:#111111;stroke-width:1.0;"/><line style="stroke:#181818;stroke-width:1.0;" x1="177" x2="177" y1="30" y2="50"/><polygon fill="#181818" points="173,40,177,50,181,40,177,44" style="stroke:#181818;stroke-width:1.0;"/><line style="stroke:#181818;stroke-width:1.0;" x1="143" x2="63" y1="118.3887" y2="118.3887"/><line style="stroke:#181818;stroke-width:1.0;" x1="63" x2="63" y1="118.3887" y2="170.4346"/><polygon fill="#181818" points="59,160.4346,63,170.4346,67,160.4346,63,164.4346" style="stroke:#181818;stroke-width:1.0;"/><text fill="#000000" font-family="sans-serif" font-size="11" lengthAdjust="spacing" textLength="6" x="63" y="149.5061">  </text><line style="stroke:#181818;stroke-width:1.0;" x1="211" x2="291" y1="118.3887" y2="118.3887"/><line style="stroke:#181818;stroke-width:1.0;" x1="291" x2="291" y1="118.3887" y2="170.4346"/><polygon fill="#181818" points="287,160.4346,291,170.4346,295,160.4346,291,164.4346" style="stroke:#181818;stroke-width:1.0;"/><text fill="#000000" font-family="sans-serif" font-size="11" lengthAdjust="spacing" textLength="6" x="291" y="149.5061">  </text><line style="stroke:#181818;stroke-width:1.0;" x1="177" x2="177" y1="130.3887" y2="143.7373"/><line style="stroke:#181818;stroke-width:1.0;" x1="177" x2="177" y1="143.7373" y2="170.4346"/><polygon fill="#181818" points="173,160.4346,177,170.4346,181,160.4346,177,164.4346" style="stroke:#181818;stroke-width:1.0;"/><text fill="#000000" font-family="sans-serif" font-size="11" lengthAdjust="spacing" textLength="6" x="177" y="150.5061">  </text><line style="stroke:#181818;stroke-width:1.0;" x1="63" x2="63" y1="206.8232" y2="238.8232"/><line style="stroke:#181818;stroke-width:1.0;" x1="63" x2="165" y1="238.8232" y2="238.8232"/><polygon fill="#181818" points="155,234.8232,165,238.8232,155,242.8232,159,238.8232" style="stroke:#181818;stroke-width:1.0;"/><line style="stroke:#181818;stroke-width:1.0;" x1="291" x2="291" y1="206.8232" y2="238.8232"/><line style="stroke:#181818;stroke-width:1.0;" x1="291" x2="189" y1="238.8232" y2="238.8232"/><polygon fill="#181818" points="199,234.8232,189,238.8232,199,242.8232,195,238.8232" style="stroke:#181818;stroke-width:1.0;"/><line style="stroke:#181818;stroke-width:1.0;" x1="177" x2="177" y1="206.8232" y2="211.8232"/><line style="stroke:#181818;stroke-width:1.0;" x1="177" x2="177" y1="211.8232" y2="226.8232"/><polygon fill="#181818" points="173,216.8232,177,226.8232,181,216.8232,177,220.8232" style="stroke:#181818;stroke-width:1.0;"/><line style="stroke:#181818;stroke-width:1.0;" x1="177" x2="177" y1="86.3887" y2="106.3887"/><polygon fill="#181818" points="173,96.3887,177,106.3887,181,96.3887,177,100.3887" style="stroke:#181818;stroke-width:1.0;"/><line style="stroke:#181818;stroke-width:1.0;" x1="177" x2="177" y1="250.8232" y2="270.8232"/><polygon fill="#181818" points="173,260.8232,177,270.8232,181,260.8232,177,264.8232" style="stroke:#181818;stroke-width:1.0;"/><!--MD5=[9bb56cbc00358910964cc0223bf84136]
@startuml
|教师|
start
:进入教师页面;
switch (进行管理)
case (  )
  :对考试进行管理;
case (  ) 
  :对题库进行管理;
case (  )
  :对试卷进行管理;
endswitch
stop
@enduml

PlantUML version 1.2022.7(Tue Aug 23 01:01:30 CST 2022)
(GPL source distribution)
Java Runtime: Java(TM) SE Runtime Environment
JVM: Java HotSpot(TM) 64-Bit Server VM
Default Encoding: GBK
Language: zh
Country: CN
--></g></svg>