<?xml version="1.0" encoding="UTF-8" standalone="no"?><svg xmlns="http://www.w3.org/2000/svg" xmlns:xlink="http://www.w3.org/1999/xlink" contentStyleType="text/css" height="394px" preserveAspectRatio="none" style="width:381px;height:394px;background:#FFFFFF;" version="1.1" viewBox="0 0 381 394" width="381px" zoomAndPan="magnify"><defs/><g><ellipse cx="202" cy="20" fill="#222222" rx="10" ry="10" style="stroke:#222222;stroke-width:1.0;"/><rect fill="#F1F1F1" height="36.3887" rx="12.5" ry="12.5" style="stroke:#181818;stroke-width:0.5;" width="92" x="156" y="50"/><text fill="#000000" font-family="sans-serif" font-size="12" lengthAdjust="spacing" textLength="72" x="166" y="73.752">进入登陆界面</text><polygon fill="#F1F1F1" points="185.5,106.3887,218.5,106.3887,230.5,118.3887,218.5,130.3887,185.5,130.3887,173.5,118.3887,185.5,106.3887" style="stroke:#181818;stroke-width:0.5;"/><text fill="#000000" font-family="sans-serif" font-size="11" lengthAdjust="spacing" textLength="33" x="185.5" y="123.4832">未注册</text><text fill="#000000" font-family="sans-serif" font-size="11" lengthAdjust="spacing" textLength="11" x="162.5" y="115.9717">是</text><text fill="#000000" font-family="sans-serif" font-size="11" lengthAdjust="spacing" textLength="11" x="230.5" y="115.9717">否</text><rect fill="#F1F1F1" height="36.3887" rx="12.5" ry="12.5" style="stroke:#181818;stroke-width:0.5;" width="92" x="94" y="140.3887"/><text fill="#000000" font-family="sans-serif" font-size="12" lengthAdjust="spacing" textLength="72" x="104" y="164.1406">注册考生用户</text><rect fill="#F1F1F1" height="36.3887" rx="12.5" ry="12.5" style="stroke:#181818;stroke-width:0.5;" width="116" x="206" y="140.3887"/><text fill="#000000" font-family="sans-serif" font-size="12" lengthAdjust="spacing" textLength="96" x="216" y="164.1406">输入用户名和密码</text><polygon fill="#F1F1F1" points="202,182.7773,214,194.7773,202,206.7773,190,194.7773,202,182.7773" style="stroke:#181818;stroke-width:0.5;"/><polygon fill="#F1F1F1" points="32,226.7773,98,226.7773,110,238.7773,98,250.7773,32,250.7773,20,238.7773,32,226.7773" style="stroke:#181818;stroke-width:0.5;"/><text fill="#000000" font-family="sans-serif" font-size="11" lengthAdjust="spacing" textLength="11" x="69" y="263.3833">是</text><text fill="#000000" font-family="sans-serif" font-size="11" lengthAdjust="spacing" textLength="66" x="32" y="243.8718">考试管理人员</text><rect fill="#F1F1F1" height="36.3887" rx="12.5" ry="12.5" style="stroke:#181818;stroke-width:0.5;" width="104" x="13" y="284.8833"/><text fill="#000000" font-family="sans-serif" font-size="12" lengthAdjust="spacing" textLength="84" x="23" y="308.6353">进入管理员页面</text><polygon fill="#F1F1F1" points="171,226.7773,195,226.7773,207,238.7773,195,250.7773,171,250.7773,159,238.7773,171,226.7773" style="stroke:#181818;stroke-width:0.5;"/><text fill="#000000" font-family="sans-serif" font-size="11" lengthAdjust="spacing" textLength="11" x="187" y="263.3833">是</text><text fill="#000000" font-family="sans-serif" font-size="11" lengthAdjust="spacing" textLength="22" x="172" y="243.8718">教师</text><rect fill="#F1F1F1" height="36.3887" rx="12.5" ry="12.5" style="stroke:#181818;stroke-width:0.5;" width="92" x="137" y="284.8833"/><text fill="#000000" font-family="sans-serif" font-size="12" lengthAdjust="spacing" textLength="72" x="147" y="308.6353">进入教师页面</text><polygon fill="#F1F1F1" points="283,226.7773,307,226.7773,319,238.7773,307,250.7773,283,250.7773,271,238.7773,283,226.7773" style="stroke:#181818;stroke-width:0.5;"/><text fill="#000000" font-family="sans-serif" font-size="11" lengthAdjust="spacing" textLength="11" x="299" y="263.3833">是</text><text fill="#000000" font-family="sans-serif" font-size="11" lengthAdjust="spacing" textLength="22" x="284" y="243.8718">考生</text><rect fill="#F1F1F1" height="36.3887" rx="12.5" ry="12.5" style="stroke:#181818;stroke-width:0.5;" width="92" x="249" y="284.8833"/><text fill="#000000" font-family="sans-serif" font-size="12" lengthAdjust="spacing" textLength="72" x="259" y="308.6353">进入考生页面</text><ellipse cx="202" cy="372.272" fill="none" rx="11" ry="11" style="stroke:#222222;stroke-width:1.0;"/><ellipse cx="202" cy="372.272" fill="#222222" rx="6" ry="6" style="stroke:#111111;stroke-width:1.0;"/><line style="stroke:#181818;stroke-width:1.0;" x1="202" x2="202" y1="30" y2="50"/><polygon fill="#181818" points="198,40,202,50,206,40,202,44" style="stroke:#181818;stroke-width:1.0;"/><line style="stroke:#181818;stroke-width:1.0;" x1="173.5" x2="140" y1="118.3887" y2="118.3887"/><line style="stroke:#181818;stroke-width:1.0;" x1="140" x2="140" y1="118.3887" y2="140.3887"/><polygon fill="#181818" points="136,130.3887,140,140.3887,144,130.3887,140,134.3887" style="stroke:#181818;stroke-width:1.0;"/><line style="stroke:#181818;stroke-width:1.0;" x1="230.5" x2="264" y1="118.3887" y2="118.3887"/><line style="stroke:#181818;stroke-width:1.0;" x1="264" x2="264" y1="118.3887" y2="140.3887"/><polygon fill="#181818" points="260,130.3887,264,140.3887,268,130.3887,264,134.3887" style="stroke:#181818;stroke-width:1.0;"/><line style="stroke:#181818;stroke-width:1.0;" x1="140" x2="140" y1="176.7773" y2="194.7773"/><line style="stroke:#181818;stroke-width:1.0;" x1="140" x2="190" y1="194.7773" y2="194.7773"/><polygon fill="#181818" points="180,190.7773,190,194.7773,180,198.7773,184,194.7773" style="stroke:#181818;stroke-width:1.0;"/><line style="stroke:#181818;stroke-width:1.0;" x1="264" x2="264" y1="176.7773" y2="194.7773"/><line style="stroke:#181818;stroke-width:1.0;" x1="264" x2="214" y1="194.7773" y2="194.7773"/><polygon fill="#181818" points="224,190.7773,214,194.7773,224,198.7773,220,194.7773" style="stroke:#181818;stroke-width:1.0;"/><line style="stroke:#181818;stroke-width:1.0;" x1="202" x2="202" y1="86.3887" y2="106.3887"/><polygon fill="#181818" points="198,96.3887,202,106.3887,206,96.3887,202,100.3887" style="stroke:#181818;stroke-width:1.0;"/><line style="stroke:#181818;stroke-width:1.0;" x1="65" x2="65" y1="250.7773" y2="284.8833"/><polygon fill="#181818" points="61,274.8833,65,284.8833,69,274.8833,65,278.8833" style="stroke:#181818;stroke-width:1.0;"/><line style="stroke:#181818;stroke-width:1.0;" x1="65" x2="65" y1="321.272" y2="341.272"/><polygon fill="#181818" points="61,331.272,65,341.272,69,331.272,65,335.272" style="stroke:#181818;stroke-width:1.0;"/><line style="stroke:#181818;stroke-width:1.0;" x1="183" x2="183" y1="250.7773" y2="284.8833"/><polygon fill="#181818" points="179,274.8833,183,284.8833,187,274.8833,183,278.8833" style="stroke:#181818;stroke-width:1.0;"/><line style="stroke:#181818;stroke-width:1.0;" x1="183" x2="183" y1="321.272" y2="341.272"/><polygon fill="#181818" points="179,331.272,183,341.272,187,331.272,183,335.272" style="stroke:#181818;stroke-width:1.0;"/><line style="stroke:#181818;stroke-width:1.0;" x1="295" x2="295" y1="250.7773" y2="284.8833"/><polygon fill="#181818" points="291,274.8833,295,284.8833,299,274.8833,295,278.8833" style="stroke:#181818;stroke-width:1.0;"/><line style="stroke:#181818;stroke-width:1.0;" x1="295" x2="295" y1="321.272" y2="341.272"/><polygon fill="#181818" points="291,331.272,295,341.272,299,331.272,295,335.272" style="stroke:#181818;stroke-width:1.0;"/><line style="stroke:#181818;stroke-width:1.0;" x1="110" x2="159" y1="238.7773" y2="238.7773"/><polygon fill="#181818" points="149,234.7773,159,238.7773,149,242.7773,153,238.7773" style="stroke:#181818;stroke-width:1.0;"/><line style="stroke:#181818;stroke-width:1.0;" x1="207" x2="271" y1="238.7773" y2="238.7773"/><polygon fill="#181818" points="261,234.7773,271,238.7773,261,242.7773,265,238.7773" style="stroke:#181818;stroke-width:1.0;"/><line style="stroke:#181818;stroke-width:1.0;" x1="202" x2="202" y1="206.7773" y2="211.7773"/><line style="stroke:#181818;stroke-width:1.0;" x1="202" x2="65" y1="211.7773" y2="211.7773"/><line style="stroke:#181818;stroke-width:1.0;" x1="65" x2="65" y1="211.7773" y2="226.7773"/><polygon fill="#181818" points="61,216.7773,65,226.7773,69,216.7773,65,220.7773" style="stroke:#181818;stroke-width:1.0;"/><line style="stroke:#181818;stroke-width:1.0;" x1="319" x2="355" y1="238.7773" y2="238.7773"/><line style="stroke:#181818;stroke-width:1.0;" x1="355" x2="355" y1="238.7773" y2="341.272"/><polygon fill="#181818" points="351,331.272,355,341.272,359,331.272,355,335.272" style="stroke:#181818;stroke-width:1.0;"/><line style="stroke:#181818;stroke-width:1.0;" x1="65" x2="355" y1="341.272" y2="341.272"/><line style="stroke:#181818;stroke-width:1.0;" x1="202" x2="202" y1="341.272" y2="361.272"/><polygon fill="#181818" points="198,351.272,202,361.272,206,351.272,202,355.272" style="stroke:#181818;stroke-width:1.0;"/><!--MD5=[72a08800159a2d9f629655af9cf36f16]
@startuml
|用户|
start
:进入登陆界面;
if (未注册) then (是)
:注册考生用户;
else (否)
:输入用户名和密码;
endif
if (考试管理人员) then (是)
:进入管理员页面;
elseif (教师) then (是)
:进入教师页面;
elseif (考生) then (是)
:进入考生页面;
endif
stop
@enduml

PlantUML version 1.2022.7(Tue Aug 23 01:01:30 CST 2022)
(GPL source distribution)
Java Runtime: Java(TM) SE Runtime Environment
JVM: Java HotSpot(TM) 64-Bit Server VM
Default Encoding: GBK
Language: zh
Country: CN
--></g></svg>