<?xml version="1.0" encoding="UTF-8" standalone="no"?><svg xmlns="http://www.w3.org/2000/svg" xmlns:xlink="http://www.w3.org/1999/xlink" contentStyleType="text/css" height="416px" preserveAspectRatio="none" style="width:318px;height:416px;background:#FFFFFF;" version="1.1" viewBox="0 0 318 416" width="318px" zoomAndPan="magnify"><defs/><g><ellipse cx="159" cy="20" fill="#222222" rx="10" ry="10" style="stroke:#222222;stroke-width:1.0;"/><rect fill="#F1F1F1" height="36.3887" rx="12.5" ry="12.5" style="stroke:#181818;stroke-width:0.5;" width="92" x="113" y="50"/><text fill="#000000" font-family="sans-serif" font-size="12" lengthAdjust="spacing" textLength="72" x="123" y="73.752">进入考生页面</text><polygon fill="#F1F1F1" points="137,106.3887,181,106.3887,193,118.3887,181,130.3887,137,130.3887,125,118.3887,137,106.3887" style="stroke:#181818;stroke-width:0.5;"/><text fill="#000000" font-family="sans-serif" font-size="11" lengthAdjust="spacing" textLength="44" x="137" y="123.4832">进行管理</text><rect fill="#F1F1F1" height="36.3887" rx="12.5" ry="12.5" style="stroke:#181818;stroke-width:0.5;" width="68" x="11" y="170.4346"/><text fill="#000000" font-family="sans-serif" font-size="12" lengthAdjust="spacing" textLength="48" x="21" y="194.1865">报名考试</text><rect fill="#F1F1F1" height="36.3887" rx="12.5" ry="12.5" style="stroke:#181818;stroke-width:0.5;" width="116" x="89" y="170.4346"/><text fill="#000000" font-family="sans-serif" font-size="12" lengthAdjust="spacing" textLength="96" x="99" y="194.1865">查看已报名的考试</text><rect fill="#F1F1F1" height="36.3887" rx="12.5" ry="12.5" style="stroke:#181818;stroke-width:0.5;" width="92" x="101" y="226.8232"/><text fill="#000000" font-family="sans-serif" font-size="12" lengthAdjust="spacing" textLength="72" x="111" y="250.5752">进行线上考试</text><rect fill="#F1F1F1" height="36.3887" rx="12.5" ry="12.5" style="stroke:#181818;stroke-width:0.5;" width="92" x="101" y="283.2119"/><text fill="#000000" font-family="sans-serif" font-size="12" lengthAdjust="spacing" textLength="72" x="111" y="306.9639">查询考试结果</text><rect fill="#F1F1F1" height="36.3887" rx="12.5" ry="12.5" style="stroke:#181818;stroke-width:0.5;" width="92" x="215" y="170.4346"/><text fill="#000000" font-family="sans-serif" font-size="12" lengthAdjust="spacing" textLength="72" x="225" y="194.1865">修改用户密码</text><polygon fill="#F1F1F1" points="159,339.6006,159,339.6006,171,351.6006,159,363.6006,159,363.6006,147,351.6006,159,339.6006" style="stroke:#181818;stroke-width:0.5;"/><ellipse cx="159" cy="394.6006" fill="none" rx="11" ry="11" style="stroke:#222222;stroke-width:1.0;"/><ellipse cx="159" cy="394.6006" fill="#222222" rx="6" ry="6" style="stroke:#111111;stroke-width:1.0;"/><line style="stroke:#181818;stroke-width:1.0;" x1="159" x2="159" y1="30" y2="50"/><polygon fill="#181818" points="155,40,159,50,163,40,159,44" style="stroke:#181818;stroke-width:1.0;"/><line style="stroke:#181818;stroke-width:1.0;" x1="147" x2="147" y1="206.8232" y2="226.8232"/><polygon fill="#181818" points="143,216.8232,147,226.8232,151,216.8232,147,220.8232" style="stroke:#181818;stroke-width:1.0;"/><line style="stroke:#181818;stroke-width:1.0;" x1="147" x2="147" y1="263.2119" y2="283.2119"/><polygon fill="#181818" points="143,273.2119,147,283.2119,151,273.2119,147,277.2119" style="stroke:#181818;stroke-width:1.0;"/><line style="stroke:#181818;stroke-width:1.0;" x1="125" x2="45" y1="118.3887" y2="118.3887"/><line style="stroke:#181818;stroke-width:1.0;" x1="45" x2="45" y1="118.3887" y2="170.4346"/><polygon fill="#181818" points="41,160.4346,45,170.4346,49,160.4346,45,164.4346" style="stroke:#181818;stroke-width:1.0;"/><text fill="#000000" font-family="sans-serif" font-size="11" lengthAdjust="spacing" textLength="6" x="45" y="149.5061">  </text><line style="stroke:#181818;stroke-width:1.0;" x1="193" x2="261" y1="118.3887" y2="118.3887"/><line style="stroke:#181818;stroke-width:1.0;" x1="261" x2="261" y1="118.3887" y2="170.4346"/><polygon fill="#181818" points="257,160.4346,261,170.4346,265,160.4346,261,164.4346" style="stroke:#181818;stroke-width:1.0;"/><text fill="#000000" font-family="sans-serif" font-size="11" lengthAdjust="spacing" textLength="6" x="261" y="149.5061">  </text><line style="stroke:#181818;stroke-width:1.0;" x1="159" x2="159" y1="130.3887" y2="143.7373"/><line style="stroke:#181818;stroke-width:1.0;" x1="159" x2="147" y1="143.7373" y2="143.7373"/><line style="stroke:#181818;stroke-width:1.0;" x1="147" x2="147" y1="143.7373" y2="170.4346"/><polygon fill="#181818" points="143,160.4346,147,170.4346,151,160.4346,147,164.4346" style="stroke:#181818;stroke-width:1.0;"/><text fill="#000000" font-family="sans-serif" font-size="11" lengthAdjust="spacing" textLength="6" x="147" y="150.5061">  </text><line style="stroke:#181818;stroke-width:1.0;" x1="45" x2="45" y1="206.8232" y2="351.6006"/><line style="stroke:#181818;stroke-width:1.0;" x1="45" x2="147" y1="351.6006" y2="351.6006"/><polygon fill="#181818" points="137,347.6006,147,351.6006,137,355.6006,141,351.6006" style="stroke:#181818;stroke-width:1.0;"/><line style="stroke:#181818;stroke-width:1.0;" x1="261" x2="261" y1="206.8232" y2="351.6006"/><line style="stroke:#181818;stroke-width:1.0;" x1="261" x2="171" y1="351.6006" y2="351.6006"/><polygon fill="#181818" points="181,347.6006,171,351.6006,181,355.6006,177,351.6006" style="stroke:#181818;stroke-width:1.0;"/><line style="stroke:#181818;stroke-width:1.0;" x1="147" x2="147" y1="319.6006" y2="324.6006"/><line style="stroke:#181818;stroke-width:1.0;" x1="147" x2="159" y1="324.6006" y2="324.6006"/><line style="stroke:#181818;stroke-width:1.0;" x1="159" x2="159" y1="324.6006" y2="339.6006"/><polygon fill="#181818" points="155,329.6006,159,339.6006,163,329.6006,159,333.6006" style="stroke:#181818;stroke-width:1.0;"/><line style="stroke:#181818;stroke-width:1.0;" x1="159" x2="159" y1="86.3887" y2="106.3887"/><polygon fill="#181818" points="155,96.3887,159,106.3887,163,96.3887,159,100.3887" style="stroke:#181818;stroke-width:1.0;"/><line style="stroke:#181818;stroke-width:1.0;" x1="159" x2="159" y1="363.6006" y2="383.6006"/><polygon fill="#181818" points="155,373.6006,159,383.6006,163,373.6006,159,377.6006" style="stroke:#181818;stroke-width:1.0;"/><!--MD5=[bcc16d5a1fcfc0a09d208258a74163a5]
@startuml
|考生|
start
:进入考生页面;
switch (进行管理)
case (  )
  :报名考试;
case (  ) 
  :查看已报名的考试;
  :进行线上考试;
  :查询考试结果;
case (  )
  :修改用户密码;
endswitch
stop
@enduml

PlantUML version 1.2022.7(Tue Aug 23 01:01:30 CST 2022)
(GPL source distribution)
Java Runtime: Java(TM) SE Runtime Environment
JVM: Java HotSpot(TM) 64-Bit Server VM
Default Encoding: GBK
Language: zh
Country: CN
--></g></svg>