<?xml version="1.0" encoding="utf-8"?>
<svg version="1.1" xmlns:xlink="http://www.w3.org/1999/xlink" width="17px" height="25px" xmlns="http://www.w3.org/2000/svg">
  <defs>
    <mask fill="white" id="clip40">
      <path d="M 16.885298295454547 23.346819196428573  C 16.96176609848485 23.435174851190474  17 23.539806547619047  17 23.660714285714285  L 17 24.553571428571427  C 17 24.674479166666668  16.96176609848485 24.779110863095237  16.885298295454547 24.867466517857142  C 16.808830492424242 24.955822172619047  16.718276515151516 25  16.613636363636363 25  L 0.38636363636363635 25  C 0.2817234848484849 25  0.19116950757575757 24.955822172619047  0.11470170454545454 24.867466517857142  C 0.03823390151515151 24.779110863095237  0 24.674479166666668  0 24.553571428571427  L 0 23.660714285714285  C 0 23.539806547619047  0.03823390151515151 23.435174851190474  0.11470170454545454 23.346819196428573  C 0.19116950757575757 23.258463541666668  0.2817234848484849 23.214285714285715  0.38636363636363635 23  L 16.613636363636363 23  C 16.718276515151516 23.214285714285715  16.808830492424242 23.258463541666668  16.885298295454547 23.346819196428573  Z M 13.57705965909091 6.361607142857142  C 13.798413825757578 7.161458333333331  13.90909090909091 8.017113095238093  13.90909090909091 8.928571428571427  C 13.90909090909091 9.654017857142858  13.810487689393941 10.323660714285715  13.61328125 10.9375  C 13.41607481060606 11.551339285714285  13.158499053030305 12.074497767857142  12.840553977272728 12.50697544642857  C 12.522608901515152 12.939453125  12.170454545454547 13.34867931547619  11.78409090909091 13.734654017857142  C 11.397727272727272 14.120628720238093  11.011363636363637 14.481026785714285  10.625 14.815848214285715  C 10.238636363636363 15.150669642857142  9.886482007575758 15.48549107142857  9.568536931818182 15.8203125  C 9.250591856060607 16.15513392857143  8.99301609848485 16.534133184523807  8.79580965909091 16.957310267857142  C 8.59860321969697 17.380487351190478  8.5 17.82924107142857  8.5 18.30357142857143  C 8.5 19.19642857142857  8.769649621212121 20.238095238095237  9.308948863636363 21.42857142857143  L 9.26065340909091 21.414620535714285  L 9.272727272727272 21.42857142857143  C 8.548295454545453 21.047247023809522  7.904356060606061 20.66127232142857  7.340909090909091 20.27064732142857  C 6.777462121212121 19.88002232142857  6.220052083333335 19.41499255952381  5.668678977272727 18.875558035714285  C 5.117305871212121 18.336123511904763  4.660511363636364 17.76646205357143  4.298295454545455 17.166573660714285  C 3.9360795454545454 16.566685267857142  3.644294507575758 15.866815476190476  3.422940340909091 15.066964285714285  C 3.2015861742424248 14.267113095238093  3.090909090909091 13.411458333333332  3.090909090909091 12.5  C 3.090909090909091 11.774553571428573  3.1895123106060606 11.104910714285715  3.38671875 10.491071428571427  C 3.58392518939394 9.877232142857142  3.8415009469696972 9.354073660714285  4.1594460227272725 8.921595982142858  C 4.477391098484849 8.489118303571427  4.829545454545455 8.079892113095235  5.215909090909091 7.693917410714285  C 5.602272727272728 7.307942708333331  5.988636363636364 6.947544642857142  6.375 6.612723214285715  C 6.761363636363636 6.277901785714285  7.113517992424244 5.943080357142858  7.431463068181818 5.608258928571427  C 7.7494081439393945 5.2734375  8.006983901515152 4.8944382440476195  8.204190340909092 4.471261160714285  C 8.401396780303031 4.048084077380951  8.5 3.5993303571428577  8.5 3.125  C 8.5 2.2507440476190466  8.234375 1.209077380952378  7.703125 0  L 7.739346590909091 0.01395089285714246  L 7.727272727272727 0  C 8.451704545454545 0.3813244047619041  9.09564393939394 0.7672991071428575  9.65909090909091 1.1579241071428577  C 10.22253787878788 1.5485491071428577  10.77994791666667 2.013578869047619  11.331321022727272 2.5530133928571423  C 11.88269412878788 3.0924479166666656  12.339488636363637 3.662109375  12.701704545454547 4.261997767857142  C 13.063920454545453 4.861886160714285  13.355705492424242 5.561755952380951  13.57705965909091 6.361607142857142  Z " fill-rule="evenodd" />
    </mask>
  </defs>
  <g transform="matrix(1 0 0 1 -471 -371 )">
    <path d="M 16.885298295454547 23.346819196428573  C 16.96176609848485 23.435174851190474  17 23.539806547619047  17 23.660714285714285  L 17 24.553571428571427  C 17 24.674479166666668  16.96176609848485 24.779110863095237  16.885298295454547 24.867466517857142  C 16.808830492424242 24.955822172619047  16.718276515151516 25  16.613636363636363 25  L 0.38636363636363635 25  C 0.2817234848484849 25  0.19116950757575757 24.955822172619047  0.11470170454545454 24.867466517857142  C 0.03823390151515151 24.779110863095237  0 24.674479166666668  0 24.553571428571427  L 0 23.660714285714285  C 0 23.539806547619047  0.03823390151515151 23.435174851190474  0.11470170454545454 23.346819196428573  C 0.19116950757575757 23.258463541666668  0.2817234848484849 23.214285714285715  0.38636363636363635 23  L 16.613636363636363 23  C 16.718276515151516 23.214285714285715  16.808830492424242 23.258463541666668  16.885298295454547 23.346819196428573  Z M 13.57705965909091 6.361607142857142  C 13.798413825757578 7.161458333333331  13.90909090909091 8.017113095238093  13.90909090909091 8.928571428571427  C 13.90909090909091 9.654017857142858  13.810487689393941 10.323660714285715  13.61328125 10.9375  C 13.41607481060606 11.551339285714285  13.158499053030305 12.074497767857142  12.840553977272728 12.50697544642857  C 12.522608901515152 12.939453125  12.170454545454547 13.34867931547619  11.78409090909091 13.734654017857142  C 11.397727272727272 14.120628720238093  11.011363636363637 14.481026785714285  10.625 14.815848214285715  C 10.238636363636363 15.150669642857142  9.886482007575758 15.48549107142857  9.568536931818182 15.8203125  C 9.250591856060607 16.15513392857143  8.99301609848485 16.534133184523807  8.79580965909091 16.957310267857142  C 8.59860321969697 17.380487351190478  8.5 17.82924107142857  8.5 18.30357142857143  C 8.5 19.19642857142857  8.769649621212121 20.238095238095237  9.308948863636363 21.42857142857143  L 9.26065340909091 21.414620535714285  L 9.272727272727272 21.42857142857143  C 8.548295454545453 21.047247023809522  7.904356060606061 20.66127232142857  7.340909090909091 20.27064732142857  C 6.777462121212121 19.88002232142857  6.220052083333335 19.41499255952381  5.668678977272727 18.875558035714285  C 5.117305871212121 18.336123511904763  4.660511363636364 17.76646205357143  4.298295454545455 17.166573660714285  C 3.9360795454545454 16.566685267857142  3.644294507575758 15.866815476190476  3.422940340909091 15.066964285714285  C 3.2015861742424248 14.267113095238093  3.090909090909091 13.411458333333332  3.090909090909091 12.5  C 3.090909090909091 11.774553571428573  3.1895123106060606 11.104910714285715  3.38671875 10.491071428571427  C 3.58392518939394 9.877232142857142  3.8415009469696972 9.354073660714285  4.1594460227272725 8.921595982142858  C 4.477391098484849 8.489118303571427  4.829545454545455 8.079892113095235  5.215909090909091 7.693917410714285  C 5.602272727272728 7.307942708333331  5.988636363636364 6.947544642857142  6.375 6.612723214285715  C 6.761363636363636 6.277901785714285  7.113517992424244 5.943080357142858  7.431463068181818 5.608258928571427  C 7.7494081439393945 5.2734375  8.006983901515152 4.8944382440476195  8.204190340909092 4.471261160714285  C 8.401396780303031 4.048084077380951  8.5 3.5993303571428577  8.5 3.125  C 8.5 2.2507440476190466  8.234375 1.209077380952378  7.703125 0  L 7.739346590909091 0.01395089285714246  L 7.727272727272727 0  C 8.451704545454545 0.3813244047619041  9.09564393939394 0.7672991071428575  9.65909090909091 1.1579241071428577  C 10.22253787878788 1.5485491071428577  10.77994791666667 2.013578869047619  11.331321022727272 2.5530133928571423  C 11.88269412878788 3.0924479166666656  12.339488636363637 3.662109375  12.701704545454547 4.261997767857142  C 13.063920454545453 4.861886160714285  13.355705492424242 5.561755952380951  13.57705965909091 6.361607142857142  Z " fill-rule="nonzero" fill="#c91212" stroke="none" fill-opacity="0.7490196078431373" transform="matrix(1 0 0 1 471 371 )" />
    <path d="M 16.885298295454547 23.346819196428573  C 16.96176609848485 23.435174851190474  17 23.539806547619047  17 23.660714285714285  L 17 24.553571428571427  C 17 24.674479166666668  16.96176609848485 24.779110863095237  16.885298295454547 24.867466517857142  C 16.808830492424242 24.955822172619047  16.718276515151516 25  16.613636363636363 25  L 0.38636363636363635 25  C 0.2817234848484849 25  0.19116950757575757 24.955822172619047  0.11470170454545454 24.867466517857142  C 0.03823390151515151 24.779110863095237  0 24.674479166666668  0 24.553571428571427  L 0 23.660714285714285  C 0 23.539806547619047  0.03823390151515151 23.435174851190474  0.11470170454545454 23.346819196428573  C 0.19116950757575757 23.258463541666668  0.2817234848484849 23.214285714285715  0.38636363636363635 23  L 16.613636363636363 23  C 16.718276515151516 23.214285714285715  16.808830492424242 23.258463541666668  16.885298295454547 23.346819196428573  Z " stroke-width="2" stroke="#aaaaaa" fill="none" stroke-opacity="0.996078431372549" transform="matrix(1 0 0 1 471 371 )" mask="url(#clip40)" />
    <path d="M 13.57705965909091 6.361607142857142  C 13.798413825757578 7.161458333333331  13.90909090909091 8.017113095238093  13.90909090909091 8.928571428571427  C 13.90909090909091 9.654017857142858  13.810487689393941 10.323660714285715  13.61328125 10.9375  C 13.41607481060606 11.551339285714285  13.158499053030305 12.074497767857142  12.840553977272728 12.50697544642857  C 12.522608901515152 12.939453125  12.170454545454547 13.34867931547619  11.78409090909091 13.734654017857142  C 11.397727272727272 14.120628720238093  11.011363636363637 14.481026785714285  10.625 14.815848214285715  C 10.238636363636363 15.150669642857142  9.886482007575758 15.48549107142857  9.568536931818182 15.8203125  C 9.250591856060607 16.15513392857143  8.99301609848485 16.534133184523807  8.79580965909091 16.957310267857142  C 8.59860321969697 17.380487351190478  8.5 17.82924107142857  8.5 18.30357142857143  C 8.5 19.19642857142857  8.769649621212121 20.238095238095237  9.308948863636363 21.42857142857143  L 9.26065340909091 21.414620535714285  L 9.272727272727272 21.42857142857143  C 8.548295454545453 21.047247023809522  7.904356060606061 20.66127232142857  7.340909090909091 20.27064732142857  C 6.777462121212121 19.88002232142857  6.220052083333335 19.41499255952381  5.668678977272727 18.875558035714285  C 5.117305871212121 18.336123511904763  4.660511363636364 17.76646205357143  4.298295454545455 17.166573660714285  C 3.9360795454545454 16.566685267857142  3.644294507575758 15.866815476190476  3.422940340909091 15.066964285714285  C 3.2015861742424248 14.267113095238093  3.090909090909091 13.411458333333332  3.090909090909091 12.5  C 3.090909090909091 11.774553571428573  3.1895123106060606 11.104910714285715  3.38671875 10.491071428571427  C 3.58392518939394 9.877232142857142  3.8415009469696972 9.354073660714285  4.1594460227272725 8.921595982142858  C 4.477391098484849 8.489118303571427  4.829545454545455 8.079892113095235  5.215909090909091 7.693917410714285  C 5.602272727272728 7.307942708333331  5.988636363636364 6.947544642857142  6.375 6.612723214285715  C 6.761363636363636 6.277901785714285  7.113517992424244 5.943080357142858  7.431463068181818 5.608258928571427  C 7.7494081439393945 5.2734375  8.006983901515152 4.8944382440476195  8.204190340909092 4.471261160714285  C 8.401396780303031 4.048084077380951  8.5 3.5993303571428577  8.5 3.125  C 8.5 2.2507440476190466  8.234375 1.209077380952378  7.703125 0  L 7.739346590909091 0.01395089285714246  L 7.727272727272727 0  C 8.451704545454545 0.3813244047619041  9.09564393939394 0.7672991071428575  9.65909090909091 1.1579241071428577  C 10.22253787878788 1.5485491071428577  10.77994791666667 2.013578869047619  11.331321022727272 2.5530133928571423  C 11.88269412878788 3.0924479166666656  12.339488636363637 3.662109375  12.701704545454547 4.261997767857142  C 13.063920454545453 4.861886160714285  13.355705492424242 5.561755952380951  13.57705965909091 6.361607142857142  Z " stroke-width="2" stroke="#aaaaaa" fill="none" stroke-opacity="0.996078431372549" transform="matrix(1 0 0 1 471 371 )" mask="url(#clip40)" />
  </g>
</svg>