<?xml version="1.0" encoding="utf-8"?>
<svg version="1.1" xmlns:xlink="http://www.w3.org/1999/xlink" width="25px" height="20px" xmlns="http://www.w3.org/2000/svg">
  <defs>
    <mask fill="white" id="clip38">
      <path d="M 9.850260416666686 9.092548076923089  C 10.583767361111086 8.41546474358972  11.467013888888914 8.076923076923089  12.5 8.076923076923089  C 13.532986111111086 8.076923076923089  15.149739583333313 9.092548076923089  15.149739583333313 9.092548076923089  C 15.149739583333313 9.092548076923089  16.25 10.584935897435898  16.25 11.538461538461517  C 16.25 12.49198717948719  15.883246527777771 13.307291666666686  15.149739583333313 13.984375  C 14.416232638888914 14.661458333333314  13.532986111111086 15  12.5 15  C 11.467013888888914 15  10.583767361111086 14.661458333333314  9.850260416666686 13.984375  C 9.116753472222229 13.307291666666686  8.75 12.49198717948719  8.75 11.538461538461517  C 8.75 10.584935897435898  9.116753472222229 9.769631410256405  9.850260416666686 9.092548076923089  Z M 18.75 3.076923076923089  L 21.666666666666686 3.076923076923089  C 22.586805555555543 3.076923076923089  23.372395833333314 3.377403846153822  24.0234375 3.9783653846153926  C 24.674479166666686 4.579326923076911  25 5.30448717948719  25 6.153846153846178  L 25 16.923076923076913  C 25 17.772435897435898  24.674479166666686 18.497596153846178  24.0234375 19.098557692307697  C 23.372395833333314 19.699519230769212  22.586805555555543 20  21.666666666666686 20  L 3.3333333333333144 20  C 2.413194444444457 20  1.6276041666666856 19.699519230769212  0.9765625 19.098557692307697  C 0.3255208333333144 18.497596153846178  0 17.772435897435898  0 16.923076923076913  L 0 14.573643410851938  L 0 6.153846153846178  C 0 5.30448717948719  0.3255208333333144 4.579326923076911  0.9765625 3.9783653846153926  C 1.6276041666666856 3.377403846153822  2.413194444444457 3.076923076923089  3.3333333333333144 3.076923076923089  L 6.25 3.076923076923089  L 6.9140625 1.4423076923076963  C 7.078993055555544 1.0496794871794939  7.380642361111085 0.7111378205128096  7.819010416666686 0.42668269230769634  C 8.257378472222229 0.14222756410258308  8.706597222222229 0  9.166666666666686 0  L 15.833333333333313 0  C 16.29340277777777 0  16.74262152777777 0.14222756410258308  17.180989583333314 0.42668269230769634  C 17.619357638888914 0.7111378205128096  17.921006944444457 1.0496794871794939  18.0859375 1.4423076923076963  L 18.75 3.076923076923089  Z M 8.37890625 15.342548076923087  C 9.520399305555543 16.396233974358985  10.894097222222229 16.923076923076913  12.5 16.923076923076913  C 14.105902777777771 16.923076923076913  15.479600694444457 16.396233974358985  16.62109375 15.342548076923087  C 17.762586805555543 14.28886217948719  18.333333333333314 13.020833333333314  18.333333333333314 11.538461538461517  C 18.333333333333314 10.05608974358972  17.762586805555543 8.788060897435898  16.62109375 7.734375  C 15.479600694444457 6.680689102564101  14.105902777777771 6.153846153846178  12.5 6.153846153846178  C 10.894097222222229 6.153846153846178  9.520399305555543 6.680689102564101  8.37890625 7.734375  C 7.237413194444457 8.788060897435898  6.666666666666686 10.05608974358972  6.666666666666686 11.538461538461517  C 6.666666666666686 13.020833333333314  7.237413194444457 14.28886217948719  8.37890625 15.342548076923087  Z " fill-rule="evenodd" />
    </mask>
  </defs>
  <g transform="matrix(1 0 0 1 -951 -199 )">
    <path d="M 9.850260416666686 9.092548076923089  C 10.583767361111086 8.41546474358972  11.467013888888914 8.076923076923089  12.5 8.076923076923089  C 13.532986111111086 8.076923076923089  15.149739583333313 9.092548076923089  15.149739583333313 9.092548076923089  C 15.149739583333313 9.092548076923089  16.25 10.584935897435898  16.25 11.538461538461517  C 16.25 12.49198717948719  15.883246527777771 13.307291666666686  15.149739583333313 13.984375  C 14.416232638888914 14.661458333333314  13.532986111111086 15  12.5 15  C 11.467013888888914 15  10.583767361111086 14.661458333333314  9.850260416666686 13.984375  C 9.116753472222229 13.307291666666686  8.75 12.49198717948719  8.75 11.538461538461517  C 8.75 10.584935897435898  9.116753472222229 9.769631410256405  9.850260416666686 9.092548076923089  Z M 18.75 3.076923076923089  L 21.666666666666686 3.076923076923089  C 22.586805555555543 3.076923076923089  23.372395833333314 3.377403846153822  24.0234375 3.9783653846153926  C 24.674479166666686 4.579326923076911  25 5.30448717948719  25 6.153846153846178  L 25 16.923076923076913  C 25 17.772435897435898  24.674479166666686 18.497596153846178  24.0234375 19.098557692307697  C 23.372395833333314 19.699519230769212  22.586805555555543 20  21.666666666666686 20  L 3.3333333333333144 20  C 2.413194444444457 20  1.6276041666666856 19.699519230769212  0.9765625 19.098557692307697  C 0.3255208333333144 18.497596153846178  0 17.772435897435898  0 16.923076923076913  L 0 14.573643410851938  L 0 6.153846153846178  C 0 5.30448717948719  0.3255208333333144 4.579326923076911  0.9765625 3.9783653846153926  C 1.6276041666666856 3.377403846153822  2.413194444444457 3.076923076923089  3.3333333333333144 3.076923076923089  L 6.25 3.076923076923089  L 6.9140625 1.4423076923076963  C 7.078993055555544 1.0496794871794939  7.380642361111085 0.7111378205128096  7.819010416666686 0.42668269230769634  C 8.257378472222229 0.14222756410258308  8.706597222222229 0  9.166666666666686 0  L 15.833333333333313 0  C 16.29340277777777 0  16.74262152777777 0.14222756410258308  17.180989583333314 0.42668269230769634  C 17.619357638888914 0.7111378205128096  17.921006944444457 1.0496794871794939  18.0859375 1.4423076923076963  L 18.75 3.076923076923089  Z M 8.37890625 15.342548076923087  C 9.520399305555543 16.396233974358985  10.894097222222229 16.923076923076913  12.5 16.923076923076913  C 14.105902777777771 16.923076923076913  15.479600694444457 16.396233974358985  16.62109375 15.342548076923087  C 17.762586805555543 14.28886217948719  18.333333333333314 13.020833333333314  18.333333333333314 11.538461538461517  C 18.333333333333314 10.05608974358972  17.762586805555543 8.788060897435898  16.62109375 7.734375  C 15.479600694444457 6.680689102564101  14.105902777777771 6.153846153846178  12.5 6.153846153846178  C 10.894097222222229 6.153846153846178  9.520399305555543 6.680689102564101  8.37890625 7.734375  C 7.237413194444457 8.788060897435898  6.666666666666686 10.05608974358972  6.666666666666686 11.538461538461517  C 6.666666666666686 13.020833333333314  7.237413194444457 14.28886217948719  8.37890625 15.342548076923087  Z " fill-rule="nonzero" fill="#ffffff" stroke="none" fill-opacity="0.996078431372549" transform="matrix(1 0 0 1 951 199 )" />
    <path d="M 9.850260416666686 9.092548076923089  C 10.583767361111086 8.41546474358972  11.467013888888914 8.076923076923089  12.5 8.076923076923089  C 13.532986111111086 8.076923076923089  15.149739583333313 9.092548076923089  15.149739583333313 9.092548076923089  C 15.149739583333313 9.092548076923089  16.25 10.584935897435898  16.25 11.538461538461517  C 16.25 12.49198717948719  15.883246527777771 13.307291666666686  15.149739583333313 13.984375  C 14.416232638888914 14.661458333333314  13.532986111111086 15  12.5 15  C 11.467013888888914 15  10.583767361111086 14.661458333333314  9.850260416666686 13.984375  C 9.116753472222229 13.307291666666686  8.75 12.49198717948719  8.75 11.538461538461517  C 8.75 10.584935897435898  9.116753472222229 9.769631410256405  9.850260416666686 9.092548076923089  Z " stroke-width="4" stroke="#aaaaaa" fill="none" stroke-opacity="0.996078431372549" transform="matrix(1 0 0 1 951 199 )" mask="url(#clip38)" />
    <path d="M 18.75 3.076923076923089  L 21.666666666666686 3.076923076923089  C 22.586805555555543 3.076923076923089  23.372395833333314 3.377403846153822  24.0234375 3.9783653846153926  C 24.674479166666686 4.579326923076911  25 5.30448717948719  25 6.153846153846178  L 25 16.923076923076913  C 25 17.772435897435898  24.674479166666686 18.497596153846178  24.0234375 19.098557692307697  C 23.372395833333314 19.699519230769212  22.586805555555543 20  21.666666666666686 20  L 3.3333333333333144 20  C 2.413194444444457 20  1.6276041666666856 19.699519230769212  0.9765625 19.098557692307697  C 0.3255208333333144 18.497596153846178  0 17.772435897435898  0 16.923076923076913  L 0 14.573643410851938  L 0 6.153846153846178  C 0 5.30448717948719  0.3255208333333144 4.579326923076911  0.9765625 3.9783653846153926  C 1.6276041666666856 3.377403846153822  2.413194444444457 3.076923076923089  3.3333333333333144 3.076923076923089  L 6.25 3.076923076923089  L 6.9140625 1.4423076923076963  C 7.078993055555544 1.0496794871794939  7.380642361111085 0.7111378205128096  7.819010416666686 0.42668269230769634  C 8.257378472222229 0.14222756410258308  8.706597222222229 0  9.166666666666686 0  L 15.833333333333313 0  C 16.29340277777777 0  16.74262152777777 0.14222756410258308  17.180989583333314 0.42668269230769634  C 17.619357638888914 0.7111378205128096  17.921006944444457 1.0496794871794939  18.0859375 1.4423076923076963  L 18.75 3.076923076923089  Z " stroke-width="4" stroke="#aaaaaa" fill="none" stroke-opacity="0.996078431372549" transform="matrix(1 0 0 1 951 199 )" mask="url(#clip38)" />
    <path d="M 8.37890625 15.342548076923087  C 9.520399305555543 16.396233974358985  10.894097222222229 16.923076923076913  12.5 16.923076923076913  C 14.105902777777771 16.923076923076913  15.479600694444457 16.396233974358985  16.62109375 15.342548076923087  C 17.762586805555543 14.28886217948719  18.333333333333314 13.020833333333314  18.333333333333314 11.538461538461517  C 18.333333333333314 10.05608974358972  17.762586805555543 8.788060897435898  16.62109375 7.734375  C 15.479600694444457 6.680689102564101  14.105902777777771 6.153846153846178  12.5 6.153846153846178  C 10.894097222222229 6.153846153846178  9.520399305555543 6.680689102564101  8.37890625 7.734375  C 7.237413194444457 8.788060897435898  6.666666666666686 10.05608974358972  6.666666666666686 11.538461538461517  C 6.666666666666686 13.020833333333314  7.237413194444457 14.28886217948719  8.37890625 15.342548076923087  Z " stroke-width="4" stroke="#aaaaaa" fill="none" stroke-opacity="0.996078431372549" transform="matrix(1 0 0 1 951 199 )" mask="url(#clip38)" />
  </g>
</svg>