<?xml version="1.0" encoding="UTF-8" standalone="no"?><svg xmlns="http://www.w3.org/2000/svg" xmlns:xlink="http://www.w3.org/1999/xlink" contentStyleType="text/css" height="293px" preserveAspectRatio="none" style="width:526px;height:293px;background:#FFFFFF;" version="1.1" viewBox="0 0 526 293" width="526px" zoomAndPan="magnify"><defs/><g><ellipse cx="263" cy="20" fill="#222222" rx="10" ry="10" style="stroke:#222222;stroke-width:1.0;"/><rect fill="#F1F1F1" height="36.3887" rx="12.5" ry="12.5" style="stroke:#181818;stroke-width:0.5;" width="104" x="211" y="50"/><text fill="#000000" font-family="sans-serif" font-size="12" lengthAdjust="spacing" textLength="84" x="221" y="73.752">进入管理员页面</text><polygon fill="#F1F1F1" points="241,106.3887,285,106.3887,297,118.3887,285,130.3887,241,130.3887,229,118.3887,241,106.3887" style="stroke:#181818;stroke-width:0.5;"/><text fill="#000000" font-family="sans-serif" font-size="11" lengthAdjust="spacing" textLength="44" x="241" y="123.4832">进行管理</text><rect fill="#F1F1F1" height="36.3887" rx="12.5" ry="12.5" style="stroke:#181818;stroke-width:0.5;" width="128" x="11" y="170.4346"/><text fill="#000000" font-family="sans-serif" font-size="12" lengthAdjust="spacing" textLength="108" x="21" y="194.1865">对考试科目进行管理</text><rect fill="#F1F1F1" height="36.3887" rx="12.5" ry="12.5" style="stroke:#181818;stroke-width:0.5;" width="128" x="149" y="170.4346"/><text fill="#000000" font-family="sans-serif" font-size="12" lengthAdjust="spacing" textLength="108" x="159" y="194.1865">对试卷类型进行管理</text><rect fill="#F1F1F1" height="36.3887" rx="12.5" ry="12.5" style="stroke:#181818;stroke-width:0.5;" width="104" x="297" y="170.4346"/><text fill="#000000" font-family="sans-serif" font-size="12" lengthAdjust="spacing" textLength="84" x="307" y="194.1865">对教师进行管理</text><rect fill="#F1F1F1" height="36.3887" rx="12.5" ry="12.5" style="stroke:#181818;stroke-width:0.5;" width="104" x="411" y="170.4346"/><text fill="#000000" font-family="sans-serif" font-size="12" lengthAdjust="spacing" textLength="84" x="421" y="194.1865">对考生进行管理</text><polygon fill="#F1F1F1" points="263,216.8232,263,216.8232,275,228.8232,263,240.8232,263,240.8232,251,228.8232,263,216.8232" style="stroke:#181818;stroke-width:0.5;"/><ellipse cx="263" cy="271.8232" fill="none" rx="11" ry="11" style="stroke:#222222;stroke-width:1.0;"/><ellipse cx="263" cy="271.8232" fill="#222222" rx="6" ry="6" style="stroke:#111111;stroke-width:1.0;"/><line style="stroke:#181818;stroke-width:1.0;" x1="263" x2="263" y1="30" y2="50"/><polygon fill="#181818" points="259,40,263,50,267,40,263,44" style="stroke:#181818;stroke-width:1.0;"/><line style="stroke:#181818;stroke-width:1.0;" x1="229" x2="75" y1="118.3887" y2="118.3887"/><line style="stroke:#181818;stroke-width:1.0;" x1="75" x2="75" y1="118.3887" y2="170.4346"/><polygon fill="#181818" points="71,160.4346,75,170.4346,79,160.4346,75,164.4346" style="stroke:#181818;stroke-width:1.0;"/><text fill="#000000" font-family="sans-serif" font-size="11" lengthAdjust="spacing" textLength="6" x="75" y="149.5061">  </text><line style="stroke:#181818;stroke-width:1.0;" x1="297" x2="463" y1="118.3887" y2="118.3887"/><line style="stroke:#181818;stroke-width:1.0;" x1="463" x2="463" y1="118.3887" y2="170.4346"/><polygon fill="#181818" points="459,160.4346,463,170.4346,467,160.4346,463,164.4346" style="stroke:#181818;stroke-width:1.0;"/><text fill="#000000" font-family="sans-serif" font-size="11" lengthAdjust="spacing" textLength="6" x="463" y="149.5061">  </text><line style="stroke:#181818;stroke-width:1.0;" x1="213" x2="213" y1="118.3887" y2="170.4346"/><polygon fill="#181818" points="209,160.4346,213,170.4346,217,160.4346,213,164.4346" style="stroke:#181818;stroke-width:1.0;"/><text fill="#000000" font-family="sans-serif" font-size="11" lengthAdjust="spacing" textLength="6" x="213" y="144.5061">  </text><line style="stroke:#181818;stroke-width:1.0;" x1="349" x2="349" y1="118.3887" y2="170.4346"/><polygon fill="#181818" points="345,160.4346,349,170.4346,353,160.4346,349,164.4346" style="stroke:#181818;stroke-width:1.0;"/><text fill="#000000" font-family="sans-serif" font-size="11" lengthAdjust="spacing" textLength="6" x="349" y="144.5061">  </text><line style="stroke:#181818;stroke-width:1.0;" x1="75" x2="75" y1="206.8232" y2="228.8232"/><line style="stroke:#181818;stroke-width:1.0;" x1="75" x2="251" y1="228.8232" y2="228.8232"/><polygon fill="#181818" points="241,224.8232,251,228.8232,241,232.8232,245,228.8232" style="stroke:#181818;stroke-width:1.0;"/><line style="stroke:#181818;stroke-width:1.0;" x1="463" x2="463" y1="206.8232" y2="228.8232"/><line style="stroke:#181818;stroke-width:1.0;" x1="463" x2="275" y1="228.8232" y2="228.8232"/><polygon fill="#181818" points="285,224.8232,275,228.8232,285,232.8232,281,228.8232" style="stroke:#181818;stroke-width:1.0;"/><line style="stroke:#181818;stroke-width:1.0;" x1="213" x2="213" y1="206.8232" y2="228.8232"/><polygon fill="#181818" points="209,218.8232,213,228.8232,217,218.8232,213,222.8232" style="stroke:#181818;stroke-width:1.0;"/><line style="stroke:#181818;stroke-width:1.0;" x1="349" x2="349" y1="206.8232" y2="228.8232"/><polygon fill="#181818" points="345,218.8232,349,228.8232,353,218.8232,349,222.8232" style="stroke:#181818;stroke-width:1.0;"/><line style="stroke:#181818;stroke-width:1.0;" x1="263" x2="263" y1="86.3887" y2="106.3887"/><polygon fill="#181818" points="259,96.3887,263,106.3887,267,96.3887,263,100.3887" style="stroke:#181818;stroke-width:1.0;"/><line style="stroke:#181818;stroke-width:1.0;" x1="263" x2="263" y1="240.8232" y2="260.8232"/><polygon fill="#181818" points="259,250.8232,263,260.8232,267,250.8232,263,254.8232" style="stroke:#181818;stroke-width:1.0;"/><!--MD5=[e034a872b26d7526bed28d3d41d670a0]
@startuml
|考试管理人员|
start
:进入管理员页面;
switch (进行管理)
case (  )
  :对考试科目进行管理;
case (  ) 
  :对试卷类型进行管理;
case (  )
  :对教师进行管理;
case (  )
  :对考生进行管理;
endswitch
stop
@enduml

PlantUML version 1.2022.7(Tue Aug 23 01:01:30 CST 2022)
(GPL source distribution)
Java Runtime: Java(TM) SE Runtime Environment
JVM: Java HotSpot(TM) 64-Bit Server VM
Default Encoding: GBK
Language: zh
Country: CN
--></g></svg>